<svg width="71" height="84" viewBox="0 0 71 84" fill="none" xmlns="http://www.w3.org/2000/svg">
<path d="M65.085 73.0494C65.085 78.5722 60.6078 83.0494 55.085 83.0494C49.5621 83.0494 45.085 78.5722 45.085 73.0494C45.085 67.5265 49.5621 63.0494 55.085 63.0494C60.6078 63.0494 65.085 67.5265 65.085 73.0494Z" fill="black"/>
<circle cx="15.085" cy="73" r="10" fill="black"/>
<rect x="0.0849609" width="70" height="70" fill="black"/>
<rect x="3.08496" y="9" width="30" height="40" fill="#10334C"/>
<rect x="37.085" y="9" width="30" height="40" fill="#10334C"/>
<path d="M18.085 17.6C19.621 17.6 20.9863 17.888 22.181 18.464C23.3756 19.04 24.3783 19.8507 25.189 20.896C26.021 21.92 26.6396 23.1147 27.045 24.48C27.4716 25.824 27.685 27.264 27.685 28.8C27.685 30.8693 27.3116 32.7573 26.565 34.464C25.8183 36.1493 24.7303 37.4933 23.301 38.496C21.893 39.4987 20.1543 40 18.085 40H10.437C9.88229 40 9.41296 39.8187 9.02896 39.456C8.66629 39.072 8.48496 38.6027 8.48496 38.048V19.552C8.48496 18.9973 8.66629 18.5387 9.02896 18.176C9.41296 17.792 9.88229 17.6 10.437 17.6H18.085ZM17.765 36.32C19.109 36.32 20.2076 35.9787 21.061 35.296C21.9143 34.592 22.533 33.6747 22.917 32.544C23.3223 31.392 23.525 30.144 23.525 28.8C23.525 27.7973 23.4076 26.848 23.173 25.952C22.9596 25.0347 22.6183 24.2347 22.149 23.552C21.6796 22.848 21.0823 22.2933 20.357 21.888C19.6316 21.4827 18.7676 21.28 17.765 21.28H12.165L12.485 20.992V36.672L12.293 36.32H17.765Z" fill="white"/>
<path d="M51.069 40C50.4716 40 49.981 39.8187 49.597 39.456C49.213 39.072 49.021 38.6027 49.021 38.048V19.488H53.181V38.048C53.181 38.6027 52.9783 39.072 52.573 39.456C52.189 39.8187 51.6876 40 51.069 40ZM43.997 21.28C43.4423 21.28 42.973 21.1093 42.589 20.768C42.2263 20.4267 42.045 19.9787 42.045 19.424C42.045 18.8693 42.2263 18.432 42.589 18.112C42.973 17.7707 43.4423 17.6 43.997 17.6H58.205C58.7596 17.6 59.2183 17.7707 59.581 18.112C59.965 18.4533 60.157 18.9013 60.157 19.456C60.157 20.0107 59.965 20.4587 59.581 20.8C59.2183 21.12 58.7596 21.28 58.205 21.28H43.997Z" fill="white"/>
</svg>
